<svg width="100%" height="100%" id="svg" viewBox="0 0 1440 490" xmlns="http://www.w3.org/2000/svg" class="transition duration-300 ease-in-out delay-150"><defs><linearGradient id="gradient" x1="0%" y1="50%" x2="100%" y2="50%"><stop offset="5%" stop-color="#0693e3"></stop><stop offset="95%" stop-color="#8ED1FC"></stop></linearGradient></defs><path d="M 0,500 L 0,0 C 85.54615384615383,70.55128205128206 171.09230769230766,141.10256410256412 260,163 C 348.90769230769234,184.89743589743588 441.17692307692323,158.14102564102564 519,143 C 596.8230769230768,127.85897435897436 660.2,124.33333333333336 720,110 C 779.8,95.66666666666664 836.0230769230768,70.52564102564101 929,84 C 1021.9769230769232,97.47435897435899 1151.7076923076925,149.56410256410257 1243,142 C 1334.2923076923075,134.43589743589743 1387.1461538461538,67.21794871794872 1440,0 L 1440,500 L 0,500 Z" stroke="none" stroke-width="0" fill="url(#gradient)" fill-opacity="0.53" class="transition-all duration-300 ease-in-out delay-150 path-0" transform="rotate(-180 720 250)"></path><defs><linearGradient id="gradient" x1="0%" y1="50%" x2="100%" y2="50%"><stop offset="5%" stop-color="#0693e3"></stop><stop offset="95%" stop-color="#8ED1FC"></stop></linearGradient></defs><path d="M 0,500 L 0,0 C 75.27948717948718,97.43846153846152 150.55897435897435,194.87692307692305 243,245 C 335.44102564102565,295.12307692307695 445.0435897435898,297.9307692307692 521,287 C 596.9564102564102,276.0692307692308 639.2666666666665,251.4 707,239 C 774.7333333333335,226.6 867.8897435897436,226.46923076923082 965,263 C 1062.1102564102564,299.5307692307692 1163.174358974359,372.7230769230769 1243,335 C 1322.825641025641,297.2769230769231 1381.4128205128204,148.63846153846154 1440,0 L 1440,500 L 0,500 Z" stroke="none" stroke-width="0" fill="url(#gradient)" fill-opacity="1" class="transition-all duration-300 ease-in-out delay-150 path-1" transform="rotate(-180 720 250)"></path></svg>