<svg xmlns="http://www.w3.org/2000/svg" viewBox="0 0 1366 633" preserveAspectRatio="xMidYMid" width="2000" height="800" xmlns:xlink="http://www.w3.org/1999/xlink" style="shape-rendering:auto;display:block;background-position-x:0%;background-position-y:0%;background-size:auto;background-origin:padding-box;background-clip:border-box;background:scroll rgb(255, 255, 255) none  repeat;width:1366px;height:633px;;animation:none"><g><g opacity="0.4" transform="matrix(100,0,0,100,768.7718505859375,-1046.8045654296875)" style="transform:matrix(100, 0, 0, 100, 768.772, -1046.8);opacity:0.4;;animation:none"><path stroke-width="0" fill="#0055ff" d="M13.3868 0 C13.3868 1.0927999999999995 13.789850688494113 2.2733877955682105 13.528326530560669 3.3344330136513998 S12.36127220662382 5.253529814681692 11.85342272421439 6.22115615951552 S11.153810397343129 8.421448076199269 10.429149956417588 9.239420621800647 S8.503925920189225 10.396339260717392 7.6045691515406375 11.017120415945199 S5.962566562147681 12.64025609202434 4.94078081214106 13.027768312584422 S2.6984326888563137 13.15747267159281 1.613600431241961 13.289195155775827 S-0.5946294157191119 13.963333768766024 -1.6794616733334649 13.831611284583007 S-3.7252389518543927 12.904387658141193 -4.747024701861013 12.51687543758111 S-7.015602960505952 12.087579955497302 -7.914959729154539 11.466798800269496 S-9.295503242691352 9.69506294693926 -10.020163683616893 8.877090401337881 S-11.829386414221874 7.4427072455540655 -12.337235896631304 6.475080900720238 S-12.736279763585626 4.264716152767872 -12.99780392151907 3.203670934684683 S-13.933200000000001 1.0928000000000013 -13.933200000000001 1.7063248781879902e-15 S-13.259328079452516 -2.142625716601484 -12.997803921519074 -3.2036709346846735 S-12.845085379040736 -5.507454555886408 -12.337235896631306 -6.4750809007202355 S-10.744824124542438 -8.059117855736496 -10.020163683616898 -8.877090401337874 S-8.81431649780313 -10.846017645041687 -7.914959729154543 -11.466798800269494 S-5.76881045186764 -12.129363217021027 -4.74702470186102 -12.51687543758111 S-2.7642939309478276 -13.69988880039999 -1.6794616733334746 -13.831611284583007 S0.5287681736275958 -13.420917639958844 1.6136004312419487 -13.289195155775829 S3.918995062134436 -13.415280533144506 4.940780812141057 -13.027768312584422 S6.705212382892046 -11.637901571173007 7.604569151540633 -11.0171204159452 S9.70448951549204 -10.057393167402031 10.429149956417582 -9.239420621800653 S11.345573241804955 -7.188782504349356 11.853422724214385 -6.2211561595155285 S13.266802372627222 -4.395478231734602 13.528326530560665 -3.3344330136514126 S13.3868 -1.0928000000000029 13.3868 -3.2788203541651574e-15" transform="matrix(1,0,0,1,0,0)" style="fill:rgb(0, 85, 255);transform:matrix(1, 0, 0, 1, 0, 0);;animation:none"></path></g>
<g opacity="0.4" transform="matrix(100,0,0,100,785.9262084960938,-1319.4654541015625)" style="transform:matrix(100, 0, 0, 100, 785.926, -1319.47);opacity:0.4;;animation:none"><path stroke-width="0" fill="#0046ff" d="M16.064159999999998 0 C16.064159999999998 1.3113599999999992 16.547820826192936 2.7280653546818527 16.233991836672804 4.0013196163816795 S14.833526647948583 6.304235777618031 14.224107269057267 7.4653873914186235 S13.384572476811755 10.10573769143912 12.514979947701105 11.087304746160775 S10.20471110422707 12.475607112860867 9.125482981848764 13.220544499134236 S7.155079874577217 15.168307310429206 5.928936974569272 15.633321975101305 S3.238119226627576 15.788967205911371 1.9363205174903528 15.947034186930992 S-0.7135552988629346 16.756000522519226 -2.0153540080001577 16.597933541499607 S-4.47028674222527 15.48526518976943 -5.696429642233215 15.020250525097332 S-8.418723552607142 14.50509594659676 -9.497951674985448 13.760158560323394 S-11.15460389122962 11.634075536327112 -12.02419642034027 10.652508481605457 S-14.195263697066249 8.931248694664879 -14.804683075957564 7.770097080864286 S-15.283535716302751 5.117659383321445 -15.597364705822883 3.8444051216216186 S-16.71984 1.3113600000000012 -16.71984 2.0475898538255883e-15 S-15.911193695343018 -2.571150859921781 -15.597364705822887 -3.844405121621608 S-15.414102454848882 -6.608945467063689 -14.804683075957566 -7.770097080864282 S-12.893788949450924 -9.670941426883793 -12.024196420340276 -10.652508481605448 S-10.577179797363755 -13.015221174050023 -9.497951674985451 -13.760158560323392 S-6.922572542241167 -14.555235860425231 -5.696429642233222 -15.02025052509733 S-3.3171527171373922 -16.439866560479985 -2.0153540080001693 -16.597933541499607 S0.634521808353115 -16.105101167950615 1.9363205174903384 -15.947034186930994 S4.702794074561323 -16.098336639773407 5.928936974569268 -15.633321975101307 S8.046254859470453 -13.965481885407607 9.125482981848759 -13.22054449913424 S11.645387418590449 -12.06887180088244 12.514979947701098 -11.087304746160784 S13.614687890165944 -8.626539005219227 14.224107269057262 -7.465387391418634 S15.920162847152667 -5.2745738780815214 16.2339918366728 -4.001319616381695 S16.064159999999998 -1.3113600000000032 16.064159999999998 -3.934584424998188e-15" transform="matrix(1,0,0,1,0,0)" style="fill:rgb(0, 70, 255);transform:matrix(1, 0, 0, 1, 0, 0);;animation:none"></path></g>
<g opacity="0.4" transform="matrix(100,0,0,100,827.0966796875,-1973.8515625)" style="transform:matrix(100, 0, 0, 100, 827.097, -1973.85);opacity:0.4;;animation:none"><path stroke-width="0" fill="#0033ff" d="M22.489824000000002 0 C22.489824000000002 1.8359039999999993 23.16694915667011 3.8192914965545937 22.727588571341926 5.6018474629343515 S20.76693730712802 8.825930088665245 19.91375017668018 10.451542347986075 S18.738401467536455 14.14803276801477 17.52097192678155 15.522226644625087 S14.2865955459179 17.46584995800522 12.775676174588273 18.508762298787936 S10.017111824408104 21.235630234600887 8.300511764396981 21.886650765141827 S4.533366917278608 22.104554088275925 2.7108487244864947 22.325847861703394 S-0.9989774184081082 23.458400731526922 -2.821495611200221 23.237106958099453 S-6.258401439115381 21.679371265677208 -7.9750014991265035 21.028350735136268 S-11.786212973649999 20.307134325235467 -13.297132344979627 19.264221984452753 S-15.616445447721473 16.28770575085796 -16.83387498847638 14.913511874247643 S-19.873369175892748 12.50374817253083 -20.72655630634059 10.87813591321 S-21.396950002823857 7.164723136650026 -21.836310588152042 5.382167170270268 S-23.407776000000002 1.8359040000000022 -23.407776000000002 2.8666257953558238e-15 S-22.275671173480234 -3.599611203890495 -21.83631058815205 -5.382167170270253 S-21.579743436788437 -9.252523653889165 -20.726556306340594 -10.878135913209995 S-18.0513045292313 -13.539317997637314 -16.833874988476392 -14.91351187424763 S-14.808051716309258 -18.221309643670033 -13.297132344979632 -19.26422198445275 S-9.691601559137638 -20.377330204595328 -7.975001499126514 -21.028350735136268 S-4.64401380399235 -23.015813184671984 -2.821495611200237 -23.237106958099453 S0.888330531694361 -22.547141635130867 2.7108487244864743 -22.325847861703398 S6.583911704385853 -22.53767129568277 8.300511764396976 -21.88665076514183 S11.264756803258638 -19.551674639570653 12.775676174588266 -18.50876229878794 S16.303542386026628 -16.896420521235413 17.520971926781538 -15.522226644625096 S19.06056304623233 -12.07715460730692 19.91375017668017 -10.45154234798609 S22.288227986013734 -7.38440342931413 22.72758857134192 -5.601847462934373 S22.489824000000002 -1.8359040000000049 22.489824000000002 -5.5084181949974654e-15" transform="matrix(1,0,0,1,0,0)" style="fill:rgb(0, 51, 255);transform:matrix(1, 0, 0, 1, 0, 0);;animation:none"></path></g>
<g></g></g><!-- [ldio] generated by https://loading.io --></svg>